<?xml version="1.0" standalone="no"?>
<!DOCTYPE svg PUBLIC "-//W3C//DTD SVG 20010904//EN"
 "http://www.w3.org/TR/2001/REC-SVG-20010904/DTD/svg10.dtd">
<svg version="1.0" xmlns="http://www.w3.org/2000/svg"
 width="702.000000pt" height="702.000000pt" viewBox="0 0 702.000000 702.000000"
 preserveAspectRatio="xMidYMid meet">
<metadata>
Created by potrace 1.14, written by Peter Selinger 2001-2017
</metadata>
<g transform="translate(0.000000,702.000000) scale(0.100000,-0.100000)"
fill="#000000" stroke="none">
<path d="M1295 6031 c-89 -29 -149 -72 -237 -171 -22 -25 -53 -82 -73 -135
-19 -48 -19 -120 -21 -2198 -2 -2045 -1 -2152 16 -2208 30 -98 70 -163 139
-223 13 -12 30 -27 39 -35 24 -24 83 -53 147 -72 57 -18 153 -19 2196 -19
1396 0 2155 3 2190 10 80 15 167 62 231 125 68 66 104 128 129 215 17 62 18
173 18 2185 1 2327 4 2186 -59 2299 -60 106 -157 185 -275 226 -57 20 -81 20
-2224 19 -1979 -1 -2170 -3 -2216 -18z m4136 -356 c109 -29 204 -126 224 -230
3 -16 6 -892 6 -1945 0 -2111 5 -1952 -62 -2045 -18 -24 -50 -56 -71 -70 -88
-58 42 -55 -2010 -55 -1441 0 -1900 3 -1932 12 -90 26 -176 106 -208 196 -16
44 -17 180 -15 1982 l2 1935 27 55 c42 86 121 149 213 168 22 5 881 9 1909 9
1491 1 1878 -2 1917 -12z"/>
</g>
</svg>
